<svg width="179" height="131" viewBox="0 0 179 131" fill="none" xmlns="http://www.w3.org/2000/svg">
<rect x="13" width="166" height="104" rx="15" fill="#BE7A5B"/>
<path d="M26.5 130.5L0 104H26.5V130.5Z" fill="#A26A50"/>
<path d="M0 0V104H26V0H0Z" fill="#BE7A5B"/>
<path d="M46.5 45H30V50.5L41.5 72H72.5L84 50.5V45H67.5L63 32H51L46.5 45Z" fill="#727486" fill-opacity="0.7"/>
<path d="M50.9 48.125H41V51.5625L47.9 65H66.5L73.4 51.5625V48.125H63.5L60.8 40H53.6L50.9 48.125Z" fill="#BE7A5B"/>
<rect x="27" y="31" width="7" height="7" fill="#727486" fill-opacity="0.7"/>
<rect x="80" y="31" width="7" height="7" fill="#727486" fill-opacity="0.7"/>
<path d="M112.281 58.4H126.681V72.8H141.081V51.2H126.681V44H141.081V22.4H126.681V36.8H112.281V22.4H119.481V15.2H148.281V22.4H155.481V44H148.281V51.2H155.481V72.8H148.281V80H119.481V72.8H112.281V58.4Z" fill="white"/>
</svg>
